<?xml version="1.0" encoding="utf-8"?>
<!-- Generator: Adobe Illustrator 24.0.1, SVG Export Plug-In . SVG Version: 6.00 Build 0)  -->
<svg version="1.1" id="Livello_1" xmlns="http://www.w3.org/2000/svg" xmlns:xlink="http://www.w3.org/1999/xlink" x="0px" y="0px"
	 viewBox="0 0 1366 768" style="enable-background:new 0 0 1366 768;" xml:space="preserve">
<style type="text/css">
	.st0{fill:#C60CC6;stroke:#000000;stroke-width:6;stroke-miterlimit:10;}
	.st1{fill:none;}
	.st2{fill:#C60CC6;stroke:#000000;stroke-width:3;stroke-miterlimit:10;}
	.st3{font-family:'MonotypeCorsiva';}
	.st4{font-size:67px;}
	.st5{letter-spacing:-1;}
	.st6{fill:#989898;}
</style>
<g>
	<g>
		<g>
			<path class="st0" d="M912.59,434.28c2.52-4.07,5.09-8.12,7.57-12.23c5.15-8.52,7.23-19.21,17.85-23.77
				c10.27-4.41,21.67-4.76,29.61,5.1c9.21,11.43,14.5,24.08,15.53,38.69c0.44,6.31,1.28,12.65,2.67,18.81
				c0.64,2.82,3.05,5.25,5.53,9.27c5.08-9.34,9.88-17.08,13.6-25.3c4.43-9.8,8.28-19.89,11.64-30.11c1.41-4.29,1.47-8.89-5.04-11
				c-2.75-0.89-5.85-5.43-5.92-8.39c-0.06-2.39,3.85-6.48,6.57-7.03c6.86-1.39,8.74-5.71,9.06-11.48c0.3-5.37,0.24-10.77,0.09-16.16
				c-0.38-14.08,5.26-25.76,15.48-34.76c4.01-3.52,10.96-6.99,15.44-5.9c6.27,1.54,9.79,7.66,11.21,15.47
				c2.34,12.87-0.29,25.11-1.41,37.59c-0.16,1.81-1.53,3.52-2.39,5.25c-3.79,7.62-1.22,12.97,7.14,12.97
				c6.66,0,13.55-0.91,19.93-2.81c10.33-3.08,18.88-1.7,22.5,5.15c2.47,4.68,2.04,8.39-3.74,10.33
				c-10.05,3.38-19.98,7.15-30.09,10.33c-2.83,0.89-6.22,0.74-9.22,0.27c-11.21-1.77-15.09,2.11-16.3,12.96
				c-2.13,19.03,7.04,34.84,13.1,51.54c0.82,2.25,4.13,4.24,6.71,5.09c14.54,4.79,29.66,4.93,44.77,4.85
				c6.86-0.04,13.73-0.53,20.58-0.34c12.23,0.35,23.31-3.79,34.1-8.62c7.93-3.56,11.49-15.93,8.3-24.18
				c-1.37-3.52-2.96-8-1.87-11.15c1.17-3.4,5.88-8.51,8.14-8.08c7.3,1.38,14.77,4.01,21.1,7.9c12.01,7.39,11.98,20.05,10.94,32.14
				c-0.36,4.22-2.85,9.14-5.95,12.07c-10.52,9.98-22.52,17.51-37.13,20.75c-7.63,1.7-14.61,6.14-22.19,8.2
				c-8.9,2.41-18.1,3.78-27.23,5.19c-6.96,1.08-14.16,2.77-21,1.97c-10.7-1.25-21.31-3.94-31.73-6.83
				c-7.38-2.04-14.37-5.46-21.56-8.18c-11.95-4.53-19.64-14.13-27.54-23.36c-1.94-2.27-2.44-5.73-3.84-8.52
				c-0.87-1.73-2.19-3.24-3.3-4.84c-1.48,1.4-3.29,2.57-4.38,4.22c-5.8,8.81-10.65,18.35-17.26,26.48
				c-9.89,12.14-18.16,10.65-27.03-2.38c-5.51-8.09-8.04-16.63-9.12-26.13c-0.62-5.45-2.32-10.94-4.49-16
				c-3.15-7.32-9.72-7.55-16.71-6.98c-6.49,0.53-8.38,4.56-10.92,9.79c-6.42,13.21-2.69,27.01-3.28,40.44
				c-0.46,10.26,2.67,20.64,3.42,31.02c0.58,8-1.86,10.32-9.42,8.35c-9.32-2.43-18.29-6.23-27.33-9.65
				c-1.18-0.45-2.43-2.02-2.73-3.28c-3.1-13.26-8.75-26.05-6.49-40.31c0.59-3.75-1.48-7.92-2.33-11.89
				c-0.99-0.07-1.98-0.15-2.97-0.22c-2.03,3.91-3.8,7.99-6.15,11.7c-5.65,8.92-11.67,17.59-17.34,26.5
				c-5.47,8.59-17.8,7.99-27.5,4.72c-8.86-2.99-17.36-7.08-26.29-9.74c-2.61-0.78-6.69,0.93-9.23,2.72
				c-12.37,8.78-25.93,13.61-40.65,17.71c-14.98,4.17-29.45,2.47-44.13,3.21c-16.09,0.8-29.12-6.69-40.1-17.46
				c-7-6.86-13.48-14.55-18.69-22.81c-3.34-5.3-3.98-12.3-5.74-18.57c-5-17.79-10.8-35.67-7.7-54.39
				c2.71-16.39,1.18-33.93,10.68-48.7c6.43-10,15-17.89,27.3-20.34c7.01-1.4,14.01-3.33,21.09-3.84
				c12.61-0.92,23.24,4.23,32.21,12.82c9.14,8.75,11.88,25.44,6.73,37.33c-2.2,5.09-2.89,10.93-5.58,15.68
				c-2.29,4.05-6.17,9.53-9.86,9.95c-7.13,0.82-13.83-7.7-14.86-14.35c-0.91-5.86-2.72-11.71-5.1-17.14c-0.85-1.93-4.54-3.39-7-3.51
				c-1.37-0.07-3.88,2.91-4.19,4.79c-1.82,10.96-4.3,22.01-4.32,33.03c-0.02,12.02,2.32,24.05,3.83,36.06
				c0.26,2.1,1.02,4.59,2.44,6.01c10.48,10.52,20.85,21.21,32.06,30.9c2.98,2.57,8.89,2.88,13.29,2.48
				c10.52-0.97,21.3,0.55,31.5-4.48c7.82-3.86,10.17-9.19,4.72-15.72c-13.46-16.12-20.98-34.05-18.58-55.58
				c3.28-29.48,16.67-53.29,42.59-67.37c26.31-14.3,50.03-2.27,54.82,27.95c1.76,11.11-1.31,23-2.3,34.52
				c-0.25,2.9-0.74,5.82-1.49,8.64c-3.59,13.48-7.01,27.02-11.12,40.34c-1.75,5.67-5.17,10.8-7.56,16.3
				c-0.59,1.35-0.76,4.08-0.03,4.58c1.63,1.11,4.21,2.1,5.95,1.59c8.4-2.45,16.6-4.86,20.84-14.22
				c5.81-12.86,14.23-24.71,18.68-37.95c3.92-11.65,9.7-21.59,17.1-30.9c6.79-8.54,15.01-7.15,19.02,2.94
				c2.74,6.89,5.32,13.84,7.98,20.76C911.23,433.26,911.91,433.77,912.59,434.28z M795.79,472.18c3.7-5.16,6.63-8.73,8.99-12.65
				c3.61-6.02,8.86-11.98,9.77-18.48c1.66-11.74,0.9-23.86,0.45-35.8c-0.07-1.87-3.71-4.86-5.98-5.16
				c-6.74-0.87-12.68,3.42-14.44,10.28c-2.59,10.05-5.65,20.17-6.48,30.43c-0.63,7.77,1.63,15.84,3.16,23.67
				C791.76,467.02,794,469.24,795.79,472.18z"/>
			<path class="st0" d="M437.73,417.1c5.99-15.53,11.97-29.76,16.98-44.33c6.6-19.2,12.39-38.68,18.62-58.01
				c1.31-4.06,2.17-8.72,4.77-11.83c5.88-7.02,14.25-6.76,21.62-3.39c8.06,3.68,9.96,12.08,9.5,20.01
				c-0.69,11.91-2.83,23.73-4.02,35.63c-0.32,3.21,0.49,6.55,0.87,9.82c0.49,4.11,1.82,8.26,1.48,12.29
				c-1.03,12.51,3.56,23.79,6.69,35.45c1.89,7.04,2.77,14.34,4.63,21.39c1.53,5.81,3.83,11.42,6.36,18.78
				c2.48-4.79,5.12-8.04,5.84-11.66c1.97-9.98,2.91-20.17,4.68-30.19c2.23-12.59,5.03-25.08,7.28-37.67
				c0.94-5.27,1.06-10.68,1.57-16.02c0.97-10.16,7.31-15.47,16.77-18.65c8.17-2.75,15.08-2.3,21.86,1.97
				c2.16,1.36,4.15,4.59,4.4,7.14c1.75,17.86,3.02,35.77,4.46,53.67c0.2,2.43,0.31,4.89,0.73,7.29c2.06,11.87,4.17,23.73,6.32,35.58
				c1.9,10.46,3.69,20.95,5.87,31.35c1.32,6.31,2.37,12.99,5.37,18.51c1.59,2.92,7.91,6,10.7,5.02c8.36-2.93,9.54,4.01,11.44,7.81
				c2.4,4.79,0.85,11.79-4.43,13.2c-12.78,3.41-26.3,3.28-38.58-1.62c-5.07-2.03-9.76-8.44-11.82-13.91
				c-5.46-14.48-9.27-29.57-14.03-44.33c-0.88-2.72-3.09-5.01-5.33-8.5c-2.42,6.22-4.23,10.85-6.02,15.49
				c-0.17,0.45-0.03,1.08-0.3,1.42c-11.28,14.82-19.13,34.08-42.96,32.61c-3.73-0.23-7.59,1.67-11.33,1.46
				c-2.21-0.12-5.38-1.95-6.27-3.86c-4.37-9.43-9.27-18.85-11.85-28.82c-4.97-19.26-8.5-38.89-12.66-58.35
				c-0.19-0.89-0.71-1.71-1.93-4.56c-3.71,5.65-7.24,9.8-9.4,14.58c-4.26,9.41-7.87,19.12-11.54,28.78
				c-3.61,9.49,1.67,17.34,4.94,25.63c3.32,8.42,7.52,16.42,4.01,26.44c-3.34,9.52-11.06,11.49-18.71,14.38
				c-1.12,0.42-2.41,0.42-3.61,0.64c-5.09,0.93-12.07,4.38-14.86,2.28c-5.74-4.32-11.43-11.02-13.26-17.78
				c-6.44-23.81-10.5-48.27-16.89-72.1c-4.8-17.9-3.19-35.81-3.7-53.79c-0.16-5.54-2.72-11.12-2.3-16.54
				c1.42-18.6,3.51-37.15,5.7-55.67c0.94-7.91,2.24-15.87,4.4-23.52c1.07-3.8,4.13-7.25,6.92-10.28c2.44-2.65,5.77-4.48,8.69-6.71
				c7.28-5.57,15.24-2.32,17.59,6.65c6.22,23.81,6.03,48.19,6.79,72.47c0.62,19.79,0.7,39.6,1.15,59.4
				C431.01,407.3,431.3,412.59,437.73,417.1z"/>
			<path class="st0" d="M337.81,233.9c0,18.67,0.58,35.08-0.16,51.43c-0.76,17.03-2.79,34.01-4.27,51.02
				c-1.24,14.27-2.13,28.59-3.83,42.8c-0.97,8.15-3.08,16.18-4.98,24.19c-2.22,9.34-4.03,18.88-7.36,27.83
				c-3.7,9.94-8,19.9-13.74,28.76c-5.19,8.01-12.6,14.61-19.18,21.7c-5.92,6.38-11.74,12.91-18.22,18.69
				c-2.81,2.51-7.1,4.47-10.83,4.66c-11.01,0.57-19.63-4.04-27.74-12.01c-18.15-17.86-26.97-40.59-36.12-63.33
				c-4.99-12.41-10.65-24.58-14.99-37.21c-3.55-10.34-5.35-21.27-8.37-31.81c-2.73-9.57-5.73-19.09-9.19-28.42
				c-5.42-14.61-7.87-29.53-7.94-45.15c-0.05-11.39-3.58-22.85-2.97-34.14c0.5-9.35,4.69-18.52,7.47-27.7
				c0.35-1.15,1.94-2.59,3.09-2.72c6.04-0.71,12.2-1.78,18.16-1.19c2.72,0.27,5.94,3.58,7.5,6.32
				c10.84,19.05,13.87,40.74,20.16,61.33c5.4,17.66,10.68,35.35,15.58,53.15c5.72,20.79,9.85,42.1,16.88,62.41
				c3.51,10.12,11.31,19.07,18.4,27.54c4.91,5.86,19.17,1.94,21.42-5.49c2.17-7.15,3.16-14.67,4.55-22.05
				c2.25-11.96,4.39-23.94,6.6-35.91c0.22-1.2,0.79-2.36,0.86-3.55c1.44-24.56,4.36-49.16,3.8-73.67
				c-0.59-25.95-4.55-51.83-6.95-77.75c-1.67-17.99-3.36-35.98-4.69-54c-0.46-6.29,12.45-23.7,18.31-25.73
				c5.9-2.03,23.4,5.1,26.11,11.6c3.43,8.22,5.59,16.96,8.48,25.41C340.99,192.31,336.88,214.4,337.81,233.9z"/>
			<path class="st0" d="M420.21,164.24c4.55,2.02,9.95,3.14,13.37,6.36c2.28,2.14,3.11,7.61,2.23,10.98
				c-3.45,13.19-12.09,23.15-21.92,32.26c-6.22,5.75-15.55,4.76-18.91-3.01c-4.21-9.76-6.76-24.52,4.02-34.31
				C408.35,168.01,410.98,165.33,420.21,164.24z"/>
		</g>
	</g>
	<rect x="1244.34" y="474.53" class="st1" width="110.3" height="66.38"/>
	<text transform="matrix(1 0 0 1 1249.7734 531.1221)" class="st2 st3 st4 st5">s.n.c</text>
	<g>
		<g>
			<path class="st6" d="M368.99,612.36c0-8.83,6.14-15.84,12.77-15.84c3.07,0,4.9,1.06,6.05,2.69h0.1l0.48-4.51l1.34-7.01h7.68
				l-6.72,33.41h-6.24v-3.17h-0.19c-2.21,2.4-4.99,3.74-7.58,3.74C371.96,621.67,368.99,618.31,368.99,612.36z M384.83,612.07
				l1.54-7.49c-0.67-1.25-2.16-1.82-3.17-1.82c-3.26,0-6.24,3.55-6.24,8.64c0,2.79,1.06,4.03,2.69,4.03
				C381.18,615.43,383.2,614.47,384.83,612.07z"/>
			<path class="st6" d="M403.79,614.47c0-0.96,0.19-1.92,0.48-2.98l2.21-8.45h-7.58l1.25-5.95h15.27l-3.55,14.69
				c-0.1,0.38-0.19,0.77-0.19,1.15c0,1.78,1.06,2.5,2.59,2.5c1.06,0,2.02-0.29,3.46-0.86l1.54,5.76c-2.11,0.86-4.32,1.34-7.39,1.34
				C406.96,621.67,403.79,618.89,403.79,614.47z M407.34,589.56c0-2.69,2.35-5.04,5.38-5.04c2.74,0,4.75,1.44,4.75,4.18
				c0,2.88-2.4,5.04-5.42,5.04C409.64,593.73,407.34,592.39,407.34,589.56z"/>
			<path class="st6" d="M457.26,589.89h7.87l0.58,10.18l0.1,4.8H466l1.73-4.61l5.09-10.37h7.87l-6.24,31.2h-6.53l1.82-9.02
				c0.67-3.36,3.02-11.28,4.03-14.79h-0.19l-3.98,8.83l-3.12,6.63h-4.22l-0.48-5.86l-0.43-9.6h-0.19
				c-0.43,4.32-1.1,10.75-1.68,13.63l-2.11,10.18h-6.34L457.26,589.89z"/>
			<path class="st6" d="M480.54,612.36c0-8.83,6.14-15.84,12.77-15.84c3.07,0,5.28,1.15,6.34,2.98h0.19l1.06-2.4h6.14l-4.8,24H496
				v-3.17h-0.19c-2.21,2.4-4.99,3.74-7.54,3.74C483.52,621.67,480.54,618.31,480.54,612.36z M496.38,612.07l1.58-7.49
				c-0.67-1.25-2.21-1.82-3.22-1.82c-3.26,0-6.24,3.55-6.24,8.64c0,2.83,1.06,4.03,2.69,4.03
				C492.73,615.43,494.75,614.47,496.38,612.07z"/>
			<path class="st6" d="M511.98,597.38l6.43-0.29h15.27l-1.15,5.95h-21.7L511.98,597.38z M518.41,596.71
				c1.25-6.24,5.09-9.6,11.62-9.6c3.84,0,6.43,1.34,7.97,2.5l-3.36,4.8c-1.3-0.86-2.4-1.25-4.22-1.25c-2.26,0-3.89,0.96-4.42,3.55
				l-4.8,24.39h-7.68L518.41,596.71z"/>
			<path class="st6" d="M539.87,597.38l6.43-0.29h15.27l-1.15,5.95h-21.7L539.87,597.38z M546.3,596.71
				c1.25-6.24,5.09-9.6,11.62-9.6c3.84,0,6.43,1.34,7.97,2.5l-3.36,4.8c-1.3-0.86-2.4-1.25-4.22-1.25c-2.26,0-3.89,0.96-4.42,3.55
				l-4.8,24.39h-7.68L546.3,596.71z"/>
			<path class="st6" d="M571.12,614.47c0-0.96,0.19-1.92,0.48-2.98l2.21-8.45h-7.58l1.25-5.95h15.27l-3.55,14.69
				c-0.1,0.38-0.19,0.77-0.19,1.15c0,1.78,1.06,2.5,2.59,2.5c1.06,0,2.02-0.29,3.46-0.86l1.54,5.76c-2.11,0.86-4.32,1.34-7.39,1.34
				C574.28,621.67,571.12,618.89,571.12,614.47z M574.67,589.56c0-2.69,2.35-5.04,5.38-5.04c2.74,0,4.75,1.44,4.75,4.18
				c0,2.88-2.4,5.04-5.42,5.04C576.97,593.73,574.67,592.39,574.67,589.56z"/>
			<path class="st6" d="M620.55,608.42c0-11.14,7.34-19.11,16.71-19.11c4.13,0,7.2,1.82,9.02,5.09l-5.18,4.03
				c-1.15-1.73-2.4-2.5-4.22-2.5c-4.66,0-8.45,5.28-8.45,12c0,4.51,1.58,7.2,5.57,7.2c0.91,0,1.97-0.29,2.69-0.77l1.15-5.18h-4.61
				l1.15-6.24h11.33l-2.98,15.46c-2.4,1.82-6.05,3.26-10.08,3.26C625.21,621.67,620.55,616.87,620.55,608.42z"/>
			<path class="st6" d="M654.78,614.47c0-0.96,0.19-1.92,0.48-2.98l2.21-8.45h-7.58l1.25-5.95h15.27l-3.55,14.69
				c-0.1,0.38-0.19,0.77-0.19,1.15c0,1.78,1.06,2.5,2.59,2.5c1.06,0,2.02-0.29,3.46-0.86l1.54,5.76c-2.11,0.86-4.32,1.34-7.39,1.34
				C657.95,621.67,654.78,618.89,654.78,614.47z M658.33,589.56c0-2.69,2.35-5.04,5.38-5.04c2.74,0,4.75,1.44,4.75,4.18
				c0,2.88-2.4,5.04-5.42,5.04C660.63,593.73,658.33,592.39,658.33,589.56z"/>
			<path class="st6" d="M675.85,610.92c0-8.74,6.82-14.4,14.02-14.4c6.72,0,10.85,4.22,10.85,10.75c0,8.74-6.82,14.4-14.02,14.4
				C679.98,621.67,675.85,617.45,675.85,610.92z M692.94,607.46c0-3.07-1.44-4.71-3.65-4.71c-2.88,0-5.66,3.17-5.66,7.97
				c0,3.07,1.44,4.71,3.65,4.71C690.15,615.43,692.94,612.26,692.94,607.46z"/>
			<path class="st6" d="M705.37,597.09h7.58l1.25,11.04c0.29,2.4,0.43,4.85,0.62,7.39h0.19c1.06-2.45,2.3-4.99,3.5-7.39l5.47-11.04
				h7.58l-13.25,24h-8.93L705.37,597.09z"/>
			<path class="st6" d="M731.53,612.36c0-8.83,6.14-15.84,12.77-15.84c3.07,0,5.28,1.15,6.34,2.98h0.19l1.06-2.4h6.14l-4.8,24h-6.24
				v-3.17h-0.19c-2.21,2.4-4.99,3.74-7.54,3.74C734.5,621.67,731.53,618.31,731.53,612.36z M747.37,612.07l1.58-7.49
				c-0.67-1.25-2.21-1.82-3.22-1.82c-3.26,0-6.24,3.55-6.24,8.64c0,2.83,1.06,4.03,2.69,4.03
				C743.72,615.43,745.74,614.47,747.37,612.07z"/>
			<path class="st6" d="M763.16,597.09h6.19l-0.14,3.84h0.19c2.21-2.21,5.76-4.42,8.83-4.42c3.94,0,6.24,2.11,6.24,6.24
				c0,1.06-0.14,2.3-0.38,3.46l-2.98,14.88h-7.68l2.78-13.92c0.19-0.86,0.34-1.58,0.34-2.16c0-1.34-0.72-1.97-1.97-1.97
				c-1.58,0-3.79,1.25-5.67,3.74l-2.78,14.31h-7.68L763.16,597.09z"/>
			<path class="st6" d="M791.05,597.09h6.19l-0.14,3.84h0.19c2.21-2.21,5.76-4.42,8.83-4.42c3.94,0,6.24,2.11,6.24,6.24
				c0,1.06-0.14,2.3-0.38,3.46L809,621.1h-7.68l2.78-13.92c0.19-0.86,0.34-1.58,0.34-2.16c0-1.34-0.72-1.97-1.97-1.97
				c-1.58,0-3.79,1.25-5.67,3.74l-2.78,14.31h-7.68L791.05,597.09z"/>
			<path class="st6" d="M822.11,614.47c0-0.96,0.19-1.92,0.48-2.98l2.21-8.45h-7.58l1.25-5.95h15.27l-3.55,14.69
				c-0.1,0.38-0.19,0.77-0.19,1.15c0,1.78,1.06,2.5,2.59,2.5c1.06,0,2.02-0.29,3.46-0.86l1.54,5.76c-2.11,0.86-4.32,1.34-7.39,1.34
				C825.27,621.67,822.11,618.89,822.11,614.47z M825.66,589.56c0-2.69,2.35-5.04,5.38-5.04c2.74,0,4.75,1.44,4.75,4.18
				c0,2.88-2.4,5.04-5.42,5.04C827.96,593.73,825.66,592.39,825.66,589.56z"/>
			<path class="st6" d="M876.82,589.89h9.41c6.34,0,10.85,2.11,10.85,7.2c0,3.36-2.4,6.43-6.72,7.78l-0.1,0.19
				c3.55,0.86,5.28,2.78,5.28,5.66c0,7.49-6.43,10.37-13.73,10.37h-11.23L876.82,589.89z M882.39,615.24c3.84,0,5.76-1.63,5.76-4.22
				c0-2.3-1.34-3.46-4.22-3.46h-2.98l-1.54,7.68H882.39z M884.03,602.37c3.74,0,5.18-1.54,5.18-3.94c0-1.73-1.34-2.69-4.22-2.69
				h-1.63l-1.34,6.62H884.03z"/>
			<path class="st6" d="M904.33,616.58c0-3.7,2.69-6.72,6.63-6.72c2.88,0,4.8,2.21,4.8,5.09c0,3.7-2.69,6.72-6.62,6.72
				C906.25,621.67,904.33,619.46,904.33,616.58z"/>
			<path class="st6" d="M953.29,613.7c0-10.66,16.03-10.85,16.03-17.81c0-1.01-0.58-1.58-1.44-1.58c-1.63,0-2.98,1.54-2.98,4.22
				c0,5.04,4.66,10.8,9.5,14.26c2.21,1.58,4.8,2.45,6.53,2.83l-2.98,6.05c-3.02-0.58-6.14-2.11-8.88-4.32
				c-5.95-4.8-10.51-12.58-10.51-18.63c0-5.09,3.74-9.41,9.79-9.41c4.42,0,6.91,2.59,6.91,6.72c0,9.99-14.59,10.75-14.59,16.9
				c0,1.73,1.06,2.98,2.98,2.98s3.94-0.96,6.05-2.88c2.74-2.54,4.22-5.71,5.67-9.31h6.72c-2.11,4.9-4.32,8.93-7.83,12.67
				c-3.22,3.41-7.25,5.28-11.95,5.28C956.55,621.67,953.29,618.41,953.29,613.7z"/>
			<path class="st6" d="M1012.23,608.42c0-11.14,7.58-19.11,16.8-19.11c3.65,0,6.72,1.82,8.54,5.09l-5.18,4.03
				c-1.15-1.73-2.3-2.5-3.74-2.5c-4.51,0-8.54,5.28-8.54,12c0,4.51,1.73,7.1,5.95,7.1c1.63,0,3.36-0.96,4.8-2.21l3.17,4.9
				c-1.73,1.63-5.18,3.94-9.6,3.94C1017.13,621.67,1012.23,616.87,1012.23,608.42z"/>
			<path class="st6" d="M1038.39,610.92c0-8.74,6.82-14.4,14.02-14.4c6.72,0,10.85,4.22,10.85,10.75c0,8.74-6.82,14.4-14.02,14.4
				C1042.52,621.67,1038.39,617.45,1038.39,610.92z M1055.48,607.46c0-3.07-1.44-4.71-3.65-4.71c-2.88,0-5.66,3.17-5.66,7.97
				c0,3.07,1.44,4.71,3.65,4.71C1052.7,615.43,1055.48,612.26,1055.48,607.46z"/>
			<path class="st6" d="M1071.66,616.58c0-3.7,2.69-6.72,6.63-6.72c2.88,0,4.8,2.21,4.8,5.09c0,3.7-2.69,6.72-6.62,6.72
				C1073.58,621.67,1071.66,619.46,1071.66,616.58z"/>
		</g>
	</g>
</g>
</svg>
